<?xml version="1.0" encoding="UTF-8"?>
<!-- Generator: Adobe Illustrator 23.0.0, SVG Export Plug-In . SVG Version: 6.00 Build 0)  -->
<svg version="1.1" id="Capa_1" xmlns="http://www.w3.org/2000/svg" xmlns:xlink="http://www.w3.org/1999/xlink" x="0px" y="0px" viewBox="0 0 24 24" style="enable-background:new 0 0 24 24;" xml:space="preserve">
<style type="text/css">
	.st0{fill:#00AEEF;}
</style>
<path class="st0" d="M12,2C6.5,2,2,6.5,2,12s4.5,10,10,10s10-4.5,10-10S17.5,2,12,2z M13.4,11.4c-1.6,2.2-3.5,6.3-3.5,6.3  s-0.7-1.8-1.5-3c-0.7-1.1-2.1-3-2.1-3s1.2,0.4,1.6,0.6c0.4,0.2,1.5,1,1.5,1s0.7-2.2,2.8-4.3c2.6-2.6,5.3-2.6,5.3-2.6  S15.5,8.5,13.4,11.4z"/>
</svg>