<?xml version="1.0" encoding="UTF-8"?>
<!-- Generator: Adobe Illustrator 23.0.0, SVG Export Plug-In . SVG Version: 6.00 Build 0)  -->
<svg version="1.1" id="Capa_1" xmlns="http://www.w3.org/2000/svg" xmlns:xlink="http://www.w3.org/1999/xlink" x="0px" y="0px" viewBox="0 0 35 48" style="enable-background:new 0 0 35 48;" xml:space="preserve">
<style type="text/css">
	.st0{fill:#00AEEF;}
	.st1{fill:#FFFFFF;}
	.st2{fill:#231F20;}
</style>
<g>
	<path class="st0" d="M8.9,45.5V28.8c0-0.4,0.3-0.7,0.7-0.7h7.9h7.9c0.4,0,0.7,0.3,0.7,0.7v16.7c0,0.5-0.6,0.9-1,0.6l-7.2-4.6   c-0.2-0.1-0.5-0.1-0.7,0l-7.2,4.6C9.5,46.4,8.9,46,8.9,45.5z"/>
</g>
<g>
	<path class="st1" d="M17.9,2.4c0.7-0.9,2.1-0.8,2.6,0.3C21,3.6,22,3.9,22.8,3.4c1-0.7,2.3-0.1,2.4,1.1c0.1,1,1.1,1.6,2,1.3   c1.1-0.3,2.2,0.6,2,1.8c-0.2,0.9,0.5,1.8,1.5,1.8c1.2,0,1.9,1.3,1.3,2.3c-0.5,0.8-0.1,1.9,0.8,2.2c1.1,0.4,1.4,1.8,0.5,2.6   c-0.7,0.7-0.7,1.8,0.1,2.4c0.9,0.7,0.8,2.1-0.3,2.6c-0.9,0.4-1.2,1.5-0.6,2.3c0.7,1,0.1,2.3-1.1,2.4c-1,0.1-1.6,1.1-1.3,2   c0.3,1.1-0.6,2.2-1.8,2c-0.9-0.2-1.8,0.5-1.8,1.5c0,1.2-1.3,1.9-2.3,1.3c-0.8-0.5-1.9-0.1-2.2,0.8c-0.4,1.1-1.8,1.4-2.6,0.5   c-0.7-0.7-1.8-0.7-2.4,0.1c-0.7,0.9-2.1,0.8-2.6-0.3c-0.4-0.9-1.5-1.2-2.3-0.6c-1,0.7-2.3,0.1-2.4-1.1c-0.1-1-1.1-1.6-2-1.3   c-1.1,0.3-2.2-0.6-2-1.8c0.2-0.9-0.5-1.8-1.5-1.8c-1.2,0-1.9-1.3-1.3-2.3c0.5-0.8,0.1-1.9-0.8-2.2c-1.1-0.4-1.4-1.8-0.5-2.6   c0.7-0.7,0.7-1.8-0.1-2.4c-0.9-0.7-0.8-2.1,0.3-2.6c0.9-0.4,1.2-1.5,0.6-2.3c-0.7-1-0.1-2.3,1.1-2.4c1-0.1,1.6-1.1,1.3-2   c-0.3-1.1,0.6-2.2,1.8-2c0.9,0.2,1.8-0.5,1.8-1.5c0-1.2,1.3-1.9,2.3-1.3C11.6,4.4,12.7,4,13,3.1c0.4-1.1,1.8-1.4,2.6-0.5   C16.2,3.3,17.3,3.2,17.9,2.4z"/>
</g>
<g>
	<path class="st2" d="M17.9,3.6c0.7-0.9,2-0.7,2.4,0.3c0.4,0.8,1.4,1.1,2.1,0.6c0.9-0.6,2.1-0.1,2.2,1c0.1,0.9,1,1.5,1.8,1.2   c1-0.3,2,0.6,1.8,1.7c-0.2,0.9,0.5,1.7,1.4,1.7c1.1,0,1.8,1.2,1.2,2.1c-0.4,0.8-0.1,1.8,0.8,2.1c1,0.4,1.3,1.7,0.5,2.4   c-0.7,0.6-0.6,1.7,0.1,2.2c0.9,0.7,0.7,2-0.3,2.4c-0.8,0.4-1.1,1.4-0.6,2.1c0.6,0.9,0.1,2.1-1,2.2c-0.9,0.1-1.5,1-1.2,1.8   c0.3,1-0.6,2-1.7,1.8c-0.9-0.2-1.7,0.5-1.7,1.4c0,1.1-1.2,1.8-2.1,1.2c-0.8-0.4-1.8-0.1-2.1,0.8c-0.4,1-1.7,1.3-2.4,0.5   c-0.6-0.7-1.7-0.6-2.2,0.1c-0.7,0.9-2,0.7-2.4-0.3c-0.4-0.8-1.4-1.1-2.1-0.6c-0.9,0.6-2.1,0.1-2.2-1c-0.1-0.9-1-1.5-1.8-1.2   c-1,0.3-2-0.6-1.8-1.7c0.2-0.9-0.5-1.7-1.4-1.7c-1.1,0-1.8-1.2-1.2-2.1c0.4-0.8,0.1-1.8-0.8-2.1c-1-0.4-1.3-1.7-0.5-2.4   c0.7-0.6,0.6-1.7-0.1-2.2c-0.9-0.7-0.7-2,0.3-2.4c0.8-0.4,1.1-1.4,0.6-2.1c-0.6-0.9-0.1-2.1,1-2.2c0.9-0.1,1.5-1,1.2-1.8   c-0.3-1,0.6-2,1.7-1.8c0.9,0.2,1.7-0.5,1.7-1.4c0-1.1,1.2-1.8,2.1-1.2C12,5.4,13,5,13.3,4.2c0.4-1,1.7-1.3,2.4-0.5   C16.3,4.3,17.4,4.3,17.9,3.6z"/>
</g>
<g>
	<circle class="st1" cx="17.5" cy="18.4" r="12.6"/>
</g>
<g>
	<path class="st2" d="M17.5,29.5c-6.1,0-11.1-5-11.1-11.1s5-11.1,11.1-11.1s11.1,5,11.1,11.1S23.6,29.5,17.5,29.5z M17.5,9   c-5.2,0-9.4,4.2-9.4,9.4s4.2,9.4,9.4,9.4s9.4-4.2,9.4-9.4S22.7,9,17.5,9z"/>
</g>
<g>
	<g>
		<path class="st0" d="M16.1,22.6l-3.6-4c-0.3-0.3-0.3-0.8,0-1.2c0.3-0.4,0.9-0.4,1.3,0l2.8,3.2l4.6-6.2c0.3-0.4,0.9-0.5,1.3-0.1    c0.3,0.3,0.3,0.8,0.1,1.2l-5.3,7.1C17,22.9,16.4,22.9,16.1,22.6z"/>
	</g>
</g>
</svg>