<?xml version="1.0" encoding="UTF-8"?>
<!-- Generator: Adobe Illustrator 28.2.0, SVG Export Plug-In . SVG Version: 6.00 Build 0)  -->
<svg version="1.1" id="Capa_1" xmlns="http://www.w3.org/2000/svg" xmlns:xlink="http://www.w3.org/1999/xlink" x="0px" y="0px" viewBox="0 0 1172 256" style="enable-background:new 0 0 1172 256;" xml:space="preserve">
<style type="text/css">
	.st0{fill:#1DAFDF;}
</style>
<g>
	<g>
		<polygon class="st0" points="82.8,25.5 11,25.5 11,56.8 56.2,56.8 56.2,182 82.8,182   "/>
		<g>
			<path class="st0" d="M82.8,109.8h26.3v9H82.8V109.8z M82.8,139.8h26.3v-9H82.8V139.8z M82.8,182h26.3v-9H82.8V182z M82.8,160.9     h26.3v-9H82.8V160.9z M82.8,25.5v9h71.5v-9H82.8z M82.8,55.5h71.5v-9H82.8V55.5z M82.8,76.6h26.3v-9H82.8V76.6z M82.8,97.7h26.3     v-9H82.8V97.7z"/>
			<g>
				<path class="st0" d="M184,68.3c35.6,0,55.1,26.4,55.1,57.6v8.6h-84.4c0.8,16.9,12.7,28.3,30.2,28.3c13.3,0,23.6-6.1,27.6-15.4      H238c-5.7,22.8-25.5,37.3-54,37.3c-16.2,0-29.7-5.5-40.3-16.2c-10.3-11-15.6-24.7-15.6-41.3C128.1,92.6,151.7,68.3,184,68.3z       M212.9,115.1c-1.5-15-12.9-24.9-28.9-24.9c-15.2,0-27.2,10.8-28.9,24.9H212.9z"/>
				<path class="st0" d="M341.6,80.3c10.1,8,16.2,18.6,18.4,31.6h-28.1c-3.4-11.2-13.9-18.8-26.6-18.8c-18.4,0-30.4,14.1-30.4,33.3      c0,19.4,12.7,33.3,30.6,33.3c12.7,0,23-7.2,26.2-17.9h28.1c-2.1,12.9-8.2,23.2-18.4,31c-9.9,7.8-22.1,11.8-36.3,11.8      c-34.6,0-58-25.9-58-58.2c0-32.7,23.4-58.2,58-58.2C319.3,68.3,331.5,72.3,341.6,80.3z"/>
				<path class="st0" d="M393.1,148.7c0.8,9.3,8.6,14.6,21.1,14.6c12.4,0,19.8-5.5,19.8-13.3c0-23.6-63.7-1.3-63.7-47.7      c0-9.7,4-17.7,11.8-24.3c7.8-6.5,18.6-9.7,31.9-9.7c24.7,0,42,12.7,43.7,34.4h-24.3c-1.1-8.4-7.8-13.3-19.6-13.3      c-11,0-18.3,4.6-18.3,12c0,21.1,65.2-1.3,65.2,47c0,21.3-17.5,36.3-46.8,36.3c-29.3,0-44.9-13.5-46-36.1H393.1z"/>
				<path class="st0" d="M474.5,71h27.4v65.6c0,13.5,8.9,22.8,21.5,22.8c13.3,0,22.8-10.5,22.8-24.7V71h27.4V182h-26.2v-13.5h-1.7      c-4.9,9.1-16.5,16.2-31,16.2c-12.2,0-21.9-3.8-29.3-11.6c-7.4-7.8-11-17.5-11-29.5V71z"/>
				<path class="st0" d="M593.6,230.5V71h27v14.1h1.5c3.2-4.9,12.9-16.9,33.3-16.9c15.6,0,28.3,5.3,37.8,16      c9.7,10.5,14.6,24.5,14.6,41.8s-4.9,31.4-14.3,42.4c-9.5,10.8-21.9,16.2-37.1,16.2c-19.4,0-30.4-10.8-33.7-17.1H621v62.9H593.6z       M650.2,159.8c17.7,0,29.7-13.7,29.7-33.3c0-20.2-12-33.3-30-33.3c-17.7,0-29.5,13.9-29.5,33.3      C620.4,146.8,632.6,159.8,650.2,159.8z"/>
			</g>
			<g>
				<path class="st0" d="M716.1,63c1.9,1.9,2.8,4.3,2.8,7.3c0,5.5-4,10.2-10.3,10.2c-3.1,0-5.5-1-7.4-2.9c-1.9-2-2.8-4.4-2.8-7.3      c0-2.9,0.9-5.3,2.8-7.3c1.9-2,4.3-2.9,7.4-2.9C711.7,60.1,714.2,61.1,716.1,63z M708.6,77.8c4.6,0,7.4-3.1,7.4-7.5      c0-4.5-2.9-7.4-7.5-7.4c-4.5,0-7.4,3.1-7.4,7.5C701.2,74.6,704.1,77.8,708.6,77.8z M704.9,75.4V65.1h4.6c2.2,0,3.6,1.6,3.6,3.4      c0,1.5-0.7,2.7-1.6,3l1.9,3.8h-2.8l-1.4-3.3h-1.4v3.3H704.9z M707.6,69.8h1.4c0.7,0,1.2-0.5,1.2-1.2c0-0.7-0.5-1.2-1.2-1.2h-1.4      V69.8z"/>
			</g>
		</g>
	</g>
	<g>
		<path class="st0" d="M796.9,79.6h-11.6v-4.7h28.4v4.7h-11.6v34.9h-5.1V79.6z"/>
		<path class="st0" d="M823.6,74.9h24.3v4.6h-19.2v12.2h17.5v4.6h-17.5v13.5h19.2v4.6h-24.3V74.9z"/>
		<path class="st0" d="M857.1,98.1v-6.8c0-10.8,5.7-16.9,15.6-16.9c9.4,0,14.7,5.6,15.4,14.2h-5.1c-0.6-5.5-3.3-9.4-10.2-9.4    c-7.6,0-10.5,4.7-10.5,12.1v6.8c0,7.4,2.9,12.1,10.5,12.1c6.8,0,9.6-3.7,10.1-9h5.1c-0.7,8.4-5.9,13.8-15.3,13.8    C862.7,115,857.1,108.9,857.1,98.1z"/>
		<path class="st0" d="M899.5,74.9h9.6l15.3,38.4V74.9h5v39.6h-9.9l-15-38.2v38.2h-5V74.9z"/>
		<path class="st0" d="M940.7,98.1v-6.8c0-10.8,5.7-16.9,15.6-16.9c10,0,15.6,6.1,15.6,16.9v6.8c0,10.8-5.7,16.9-15.6,16.9    C946.4,115,940.7,108.9,940.7,98.1z M956.3,110.2c7.6,0,10.5-4.7,10.5-12.1v-6.8c0-7.4-2.9-12.1-10.5-12.1s-10.5,4.7-10.5,12.1    v6.8C945.8,105.5,948.7,110.2,956.3,110.2z"/>
		<path class="st0" d="M983.3,74.9h5.1v34.8h17.8v4.8h-22.9V74.9z"/>
		<path class="st0" d="M1012.3,98.1v-6.8c0-10.8,5.7-16.9,15.6-16.9s15.6,6.1,15.6,16.9v6.8c0,10.8-5.7,16.9-15.6,16.9    S1012.3,108.9,1012.3,98.1z M1027.9,110.2c7.6,0,10.5-4.7,10.5-12.1v-6.8c0-7.4-2.9-12.1-10.5-12.1s-10.5,4.7-10.5,12.1v6.8    C1017.4,105.5,1020.2,110.2,1027.9,110.2z"/>
		<path class="st0" d="M1052.6,98.1v-6.8c0-10.8,5.7-16.9,15.6-16.9c9.4,0,14.7,5.6,15.4,14.2h-5.1c-0.6-5.5-3.3-9.4-10.2-9.4    c-7.6,0-10.5,4.7-10.5,12.1v6.8c0,7.4,2.9,12.1,10.5,12.1c6.2,0,10.4-2.9,10.4-12.3v-0.3h-10.5v-4.5h15.5v4.5    c0,10.3-4.9,17.4-15.5,17.4C1058.3,115,1052.6,108.9,1052.6,98.1z"/>
		<path class="st0" d="M1093.5,109.8h8.3V79.6h-8.3v-4.7h21.6v4.7h-8.3v30.2h8.3v4.7h-21.6V109.8z M1104.7,62.6h5.3l-3.7,8.3h-4.5    L1104.7,62.6z"/>
		<path class="st0" d="M1148.2,104.2h-16.6l-3.1,10.2h-5.5l12.3-39.6h9.2l12.2,39.6h-5.5L1148.2,104.2z M1146.9,99.7l-7-23.4    l-7,23.4H1146.9z"/>
		<path class="st0" d="M786.6,157.8V151c0-10.8,5.7-16.9,15.6-16.9c9.4,0,14.7,5.6,15.4,14.2h-5.1c-0.6-5.5-3.3-9.4-10.2-9.4    c-7.6,0-10.5,4.7-10.5,12.1v6.8c0,7.4,2.9,12.1,10.5,12.1c6.8,0,9.6-3.7,10.1-9h5.1c-0.7,8.4-5.9,13.8-15.3,13.8    C792.3,174.7,786.6,168.6,786.6,157.8z"/>
		<path class="st0" d="M824.4,157.8V151c0-10.8,5.7-16.9,15.6-16.9c10,0,15.6,6.1,15.6,16.9v6.8c0,10.8-5.7,16.9-15.6,16.9    C830,174.7,824.4,168.6,824.4,157.8z M840,169.9c7.6,0,10.5-4.7,10.5-12.1V151c0-7.4-2.9-12.1-10.5-12.1s-10.5,4.7-10.5,12.1v6.8    C829.5,165.2,832.4,169.9,840,169.9z"/>
		<path class="st0" d="M864.6,134.6h9.6l15.3,38.4v-38.4h5v39.6h-9.9l-15-38.2v38.2h-5V134.6z"/>
		<path class="st0" d="M917.1,162.3h5c0.3,4.8,3.2,7.8,9.4,7.8c5.8,0,9.1-2.3,9.1-6.8c0-3.8-2.2-5.5-6.5-6.4l-5.8-1.2    c-6.3-1.4-9.9-4.6-9.9-10.7c0-6.4,4.9-10.9,13.1-10.9c7.9,0,13.5,4.7,13.5,11.8h-5c-0.2-4.3-3.1-7.1-8.6-7.1c-4.7,0-7.9,2-7.9,6.2    c0,3.2,2,4.9,6.2,5.9l5.4,1.2c6.8,1.6,10.7,4.7,10.7,11.2c0,7.1-5.7,11.4-14.2,11.4C921.9,174.7,917.4,169.8,917.1,162.3z"/>
		<path class="st0" d="M954.6,134.6h24.3v4.6h-19.2v12.2h17.5v4.6h-17.5v13.5h19.2v4.6h-24.3V134.6z"/>
		<path class="st0" d="M987.9,134.6h9.6l15.3,38.4v-38.4h5v39.6h-9.9l-15-38.2v38.2h-5V134.6z"/>
		<path class="st0" d="M1037,139.3h-11.6v-4.7h28.4v4.7h-11.6v34.9h-5.1V139.3z"/>
		<path class="st0" d="M1059.7,169.5h8.3v-30.2h-8.3v-4.7h21.6v4.7h-8.3v30.2h8.3v4.7h-21.6V169.5z"/>
		<path class="st0" d="M1090.9,134.6h12.6c10.5,0,16.2,6.7,16.2,17.5v4.5c0,10.8-5.7,17.5-16.2,17.5h-12.6V134.6z M1114.5,156.6    v-4.5c0-7.4-2.9-12.7-11.1-12.7h-7.6v30h7.6C1111.7,169.4,1114.5,164,1114.5,156.6z"/>
		<path class="st0" d="M1126.4,157.8V151c0-10.8,5.7-16.9,15.6-16.9s15.6,6.1,15.6,16.9v6.8c0,10.8-5.7,16.9-15.6,16.9    S1126.4,168.6,1126.4,157.8z M1142,169.9c7.6,0,10.5-4.7,10.5-12.1V151c0-7.4-2.9-12.1-10.5-12.1s-10.5,4.7-10.5,12.1v6.8    C1131.5,165.2,1134.4,169.9,1142,169.9z"/>
	</g>
</g>
</svg>